<?xml version="1.0" encoding="UTF-8" standalone="no"?>
<!DOCTYPE svg PUBLIC "-//W3C//DTD SVG 1.1//EN"
 "http://www.w3.org/Graphics/SVG/1.1/DTD/svg11.dtd">
<!-- Generated by graphviz version 2.43.0 (0)
 -->
<!-- Title: G Pages: 1 -->
<svg width="251pt" height="305pt"
 viewBox="0.00 0.00 251.19 305.00" xmlns="http://www.w3.org/2000/svg" xmlns:xlink="http://www.w3.org/1999/xlink">
<g id="graph0" class="graph" transform="scale(1 1) rotate(0) translate(4 301)">
<title>G</title>
<polygon fill="white" stroke="transparent" points="-4,4 -4,-301 247.19,-301 247.19,4 -4,4"/>
<!-- P -->
<g id="node1" class="node">
<title>P</title>
<ellipse fill="none" stroke="black" cx="121.6" cy="-279" rx="27" ry="18"/>
<text text-anchor="middle" x="121.6" y="-275.3" font-family="Times,serif" font-size="14.00">s</text>
</g>
<!-- L11 -->
<g id="node3" class="node">
<title>L11</title>
<ellipse fill="none" stroke="black" cx="28.6" cy="-192" rx="28.7" ry="18"/>
<text text-anchor="middle" x="28.6" y="-188.3" font-family="Times,serif" font-size="14.00">L11</text>
</g>
<!-- P&#45;&gt;L11 -->
<g id="edge1" class="edge">
<title>P&#45;&gt;L11</title>
<path fill="none" stroke="black" d="M106.24,-263.96C91.52,-250.51 69.1,-230.01 52.12,-214.5"/>
<polygon fill="black" stroke="black" points="54.03,-211.5 44.29,-207.34 49.31,-216.67 54.03,-211.5"/>
<text text-anchor="middle" x="86.6" y="-231.8" font-family="Times,serif" font-size="14.00">7</text>
</g>
<!-- L12 -->
<g id="node4" class="node">
<title>L12</title>
<ellipse fill="none" stroke="black" cx="121.6" cy="-192" rx="28.7" ry="18"/>
<text text-anchor="middle" x="121.6" y="-188.3" font-family="Times,serif" font-size="14.00">L12</text>
</g>
<!-- P&#45;&gt;L12 -->
<g id="edge2" class="edge">
<title>P&#45;&gt;L12</title>
<path fill="none" stroke="black" d="M121.6,-260.8C121.6,-249.16 121.6,-233.55 121.6,-220.24"/>
<polygon fill="black" stroke="black" points="125.1,-220.18 121.6,-210.18 118.1,-220.18 125.1,-220.18"/>
<text text-anchor="middle" x="131.1" y="-231.8" font-family="Times,serif" font-size="14.00">10</text>
</g>
<!-- V -->
<g id="node2" class="node">
<title>V</title>
<ellipse fill="none" stroke="black" cx="121.6" cy="-18" rx="27" ry="18"/>
<text text-anchor="middle" x="121.6" y="-14.3" font-family="Times,serif" font-size="14.00">t</text>
</g>
<!-- L21 -->
<g id="node6" class="node">
<title>L21</title>
<ellipse fill="none" stroke="black" cx="28.6" cy="-105" rx="28.7" ry="18"/>
<text text-anchor="middle" x="28.6" y="-101.3" font-family="Times,serif" font-size="14.00">L21</text>
</g>
<!-- V&#45;&gt;L21 -->
<g id="edge11" class="edge">
<title>V&#45;&gt;L21</title>
<path fill="none" stroke="black" d="M106.36,-32.92C91.54,-46.47 68.83,-67.23 51.77,-82.82"/>
<polygon fill="black" stroke="black" points="49.39,-80.25 44.37,-89.58 54.12,-85.42 49.39,-80.25"/>
<text text-anchor="middle" x="86.6" y="-57.8" font-family="Times,serif" font-size="14.00">1</text>
</g>
<!-- L11&#45;&gt;L21 -->
<g id="edge6" class="edge">
<title>L11&#45;&gt;L21</title>
<path fill="none" stroke="black" d="M28.6,-173.8C28.6,-162.16 28.6,-146.55 28.6,-133.24"/>
<polygon fill="black" stroke="black" points="32.1,-133.18 28.6,-123.18 25.1,-133.18 32.1,-133.18"/>
<text text-anchor="middle" x="33.6" y="-144.8" font-family="Times,serif" font-size="14.00">4</text>
</g>
<!-- L12&#45;&gt;L11 -->
<g id="edge3" class="edge">
<title>L12&#45;&gt;L11</title>
<path fill="none" stroke="black" d="M92.87,-192C84.82,-192 75.94,-192 67.41,-192"/>
<polygon fill="black" stroke="black" points="67.26,-188.5 57.26,-192 67.26,-195.5 67.26,-188.5"/>
<text text-anchor="middle" x="75.1" y="-198.8" font-family="Times,serif" font-size="14.00">3</text>
</g>
<!-- L13 -->
<g id="node5" class="node">
<title>L13</title>
<ellipse fill="none" stroke="black" cx="214.6" cy="-192" rx="28.7" ry="18"/>
<text text-anchor="middle" x="214.6" y="-188.3" font-family="Times,serif" font-size="14.00">L13</text>
</g>
<!-- L12&#45;&gt;L13 -->
<g id="edge4" class="edge">
<title>L12&#45;&gt;L13</title>
<path fill="none" stroke="black" d="M150.26,-192C158.3,-192 167.19,-192 175.72,-192"/>
<polygon fill="black" stroke="black" points="175.87,-195.5 185.87,-192 175.87,-188.5 175.87,-195.5"/>
<text text-anchor="middle" x="168.1" y="-198.8" font-family="Times,serif" font-size="14.00">5</text>
</g>
<!-- L22 -->
<g id="node7" class="node">
<title>L22</title>
<ellipse fill="none" stroke="black" cx="121.6" cy="-105" rx="28.7" ry="18"/>
<text text-anchor="middle" x="121.6" y="-101.3" font-family="Times,serif" font-size="14.00">L22</text>
</g>
<!-- L12&#45;&gt;L22 -->
<g id="edge7" class="edge">
<title>L12&#45;&gt;L22</title>
<path fill="none" stroke="black" d="M121.6,-173.8C121.6,-162.16 121.6,-146.55 121.6,-133.24"/>
<polygon fill="black" stroke="black" points="125.1,-133.18 121.6,-123.18 118.1,-133.18 125.1,-133.18"/>
<text text-anchor="middle" x="126.6" y="-144.8" font-family="Times,serif" font-size="14.00">6</text>
</g>
<!-- L13&#45;&gt;P -->
<g id="edge5" class="edge">
<title>L13&#45;&gt;P</title>
<path fill="none" stroke="black" d="M198.91,-207.34C184.07,-220.9 161.63,-241.41 144.74,-256.85"/>
<polygon fill="black" stroke="black" points="141.97,-254.63 136.95,-263.96 146.7,-259.8 141.97,-254.63"/>
<text text-anchor="middle" x="178.6" y="-231.8" font-family="Times,serif" font-size="14.00">2</text>
</g>
<!-- L23 -->
<g id="node8" class="node">
<title>L23</title>
<ellipse fill="none" stroke="black" cx="214.6" cy="-105" rx="28.7" ry="18"/>
<text text-anchor="middle" x="214.6" y="-101.3" font-family="Times,serif" font-size="14.00">L23</text>
</g>
<!-- L13&#45;&gt;L23 -->
<g id="edge8" class="edge">
<title>L13&#45;&gt;L23</title>
<path fill="none" stroke="black" d="M214.6,-173.8C214.6,-162.16 214.6,-146.55 214.6,-133.24"/>
<polygon fill="black" stroke="black" points="218.1,-133.18 214.6,-123.18 211.1,-133.18 218.1,-133.18"/>
<text text-anchor="middle" x="219.6" y="-144.8" font-family="Times,serif" font-size="14.00">6</text>
</g>
<!-- L21&#45;&gt;L22 -->
<g id="edge9" class="edge">
<title>L21&#45;&gt;L22</title>
<path fill="none" stroke="black" d="M57.26,-105C65.3,-105 74.19,-105 82.72,-105"/>
<polygon fill="black" stroke="black" points="82.87,-108.5 92.87,-105 82.87,-101.5 82.87,-108.5"/>
<text text-anchor="middle" x="75.1" y="-111.8" font-family="Times,serif" font-size="14.00">6</text>
</g>
<!-- L22&#45;&gt;V -->
<g id="edge12" class="edge">
<title>L22&#45;&gt;V</title>
<path fill="none" stroke="black" d="M121.6,-86.8C121.6,-75.16 121.6,-59.55 121.6,-46.24"/>
<polygon fill="black" stroke="black" points="125.1,-46.18 121.6,-36.18 118.1,-46.18 125.1,-46.18"/>
<text text-anchor="middle" x="126.6" y="-57.8" font-family="Times,serif" font-size="14.00">8</text>
</g>
<!-- L23&#45;&gt;V -->
<g id="edge13" class="edge">
<title>L23&#45;&gt;V</title>
<path fill="none" stroke="black" d="M198.82,-89.58C183.95,-75.99 161.48,-55.45 144.61,-40.03"/>
<polygon fill="black" stroke="black" points="146.58,-37.09 136.83,-32.92 141.85,-42.25 146.58,-37.09"/>
<text text-anchor="middle" x="178.6" y="-57.8" font-family="Times,serif" font-size="14.00">7</text>
</g>
<!-- L23&#45;&gt;L22 -->
<g id="edge10" class="edge">
<title>L23&#45;&gt;L22</title>
<path fill="none" stroke="black" d="M185.87,-105C177.82,-105 168.94,-105 160.41,-105"/>
<polygon fill="black" stroke="black" points="160.26,-101.5 150.26,-105 160.26,-108.5 160.26,-101.5"/>
<text text-anchor="middle" x="168.1" y="-111.8" font-family="Times,serif" font-size="14.00">2</text>
</g>
</g>
</svg>
