<?xml version="1.0" encoding="UTF-8" standalone="no"?><!DOCTYPE svg PUBLIC "-//W3C//DTD SVG 1.1//EN" "http://www.w3.org/Graphics/SVG/1.1/DTD/svg11.dtd"><!-- Generated by graphviz version 2.40.1 (20161225.0304)
 --><!-- Title: G Pages: 1 --><svg xmlns="http://www.w3.org/2000/svg" xmlns:xlink="http://www.w3.org/1999/xlink" width="281pt" height="148pt" viewBox="0.00 0.00 281.32 148.20">
<g id="graph0" class="graph" transform="scale(1 1) rotate(0) translate(4 144.2012)">
<title>G</title>
<polygon fill="#ffffff" stroke="transparent" points="-4,4 -4,-144.2012 277.3211,-144.2012 277.3211,4 -4,4"/>
<!-- A -->
<g id="node1" class="node">
<title>A</title>
<ellipse fill="none" stroke="#000000" cx="27" cy="-70.1006" rx="27" ry="18"/>
<text text-anchor="middle" x="27" y="-65.9006" font-family="Times,serif" font-size="14.00" fill="#000000">A</text>
</g>
<!-- B -->
<g id="node2" class="node">
<title>B</title>
<ellipse fill="none" stroke="#000000" cx="156.0803" cy="-18" rx="27" ry="18"/>
<text text-anchor="middle" x="156.0803" y="-13.8" font-family="Times,serif" font-size="14.00" fill="#000000">B</text>
</g>
<!-- A&#45;&gt;B -->
<g id="edge1" class="edge">
<title>A-&gt;B</title>
<path fill="none" stroke="#000000" d="M50.3755,-60.6656C70.8449,-52.4035 100.7958,-40.3144 123.5943,-31.1123"/>
<polygon fill="#000000" stroke="#000000" points="124.9156,-34.3534 132.8787,-27.3648 122.2956,-27.8622 124.9156,-34.3534"/>
<text text-anchor="middle" x="81.1546" y="-50.0889" font-family="Times,serif" font-size="14.00" fill="#000000">α</text>
</g>
<!-- C -->
<g id="node3" class="node">
<title>C</title>
<ellipse fill="none" stroke="#000000" cx="156.0803" cy="-122.2012" rx="27" ry="18"/>
<text text-anchor="middle" x="156.0803" y="-118.0012" font-family="Times,serif" font-size="14.00" fill="#000000">C</text>
</g>
<!-- B&#45;&gt;C -->
<g id="edge2" class="edge">
<title>B-&gt;C</title>
<path fill="none" stroke="#000000" d="M156.0803,-36.1505C156.0803,-52.0406 156.0803,-75.3934 156.0803,-93.7632"/>
<polygon fill="#000000" stroke="#000000" points="152.5804,-93.909 156.0803,-103.9091 159.5804,-93.9091 152.5804,-93.909"/>
<text text-anchor="middle" x="150.25" y="-69.1568" font-family="Times,serif" font-size="14.00" fill="#000000">β</text>
</g>
<!-- D -->
<g id="node4" class="node">
<title>D</title>
<ellipse fill="none" stroke="#000000" cx="246.3211" cy="-70.1006" rx="27" ry="18"/>
<text text-anchor="middle" x="246.3211" y="-65.9006" font-family="Times,serif" font-size="14.00" fill="#000000">D</text>
</g>
<!-- B&#45;&gt;D -->
<g id="edge3" class="edge">
<title>B-&gt;D</title>
<path fill="none" stroke="#000000" d="M176.5573,-29.8224C188.4722,-36.7015 203.6943,-45.49 216.8774,-53.1012"/>
<polygon fill="#000000" stroke="#000000" points="215.2025,-56.1756 225.6128,-58.1446 218.7025,-50.1134 215.2025,-56.1756"/>
<text text-anchor="middle" x="192.6371" y="-45.6618" font-family="Times,serif" font-size="14.00" fill="#000000">δ</text>
</g>
<!-- C&#45;&gt;D -->
<g id="edge4" class="edge">
<title>C-&gt;D</title>
<path fill="none" stroke="#000000" d="M176.5573,-110.3787C188.4722,-103.4997 203.6943,-94.7112 216.8774,-87.0999"/>
<polygon fill="#000000" stroke="#000000" points="218.7025,-90.0877 225.6128,-82.0566 215.2025,-84.0255 218.7025,-90.0877"/>
<text text-anchor="middle" x="192.6371" y="-102.9393" font-family="Times,serif" font-size="14.00" fill="#000000">σ</text>
</g>
</g>
</svg>