<?xml version="1.0" encoding="UTF-8" standalone="no"?><!DOCTYPE svg PUBLIC "-//W3C//DTD SVG 1.1//EN" "http://www.w3.org/Graphics/SVG/1.1/DTD/svg11.dtd"><!-- Generated by graphviz version 2.40.1 (20161225.0304)
 --><!-- Title: G Pages: 1 --><svg xmlns="http://www.w3.org/2000/svg" xmlns:xlink="http://www.w3.org/1999/xlink" width="281pt" height="148pt" viewBox="0.00 0.00 281.32 148.20">
<g id="graph0" class="graph" transform="scale(1 1) rotate(0) translate(4 144.2012)">
<title>G</title>
<polygon fill="#ffffff" stroke="transparent" points="-4,4 -4,-144.2012 277.3211,-144.2012 277.3211,4 -4,4"/>
<!-- A -->
<g id="node1" class="node">
<title>A</title>
<ellipse fill="none" stroke="#000000" cx="27" cy="-70.1006" rx="27" ry="18"/>
<text text-anchor="middle" x="27" y="-65.9006" font-family="Times,serif" font-size="14.00" fill="#000000">A</text>
</g>
<!-- B -->
<g id="node2" class="node">
<title>B</title>
<ellipse fill="none" stroke="#000000" cx="156.0803" cy="-18" rx="27" ry="18"/>
<text text-anchor="middle" x="156.0803" y="-13.8" font-family="Times,serif" font-size="14.00" fill="#000000">B</text>
</g>
<!-- A&#45;&#45;B -->
<g id="edge1" class="edge">
<title>A--B</title>
<path fill="none" stroke="#000000" d="M50.3755,-60.6656C73.7691,-51.2232 109.5467,-36.7823 132.8787,-27.3648"/>
<text text-anchor="middle" x="85.7968" y="-48.2152" font-family="Times,serif" font-size="14.00" fill="#000000">α</text>
</g>
<!-- C -->
<g id="node3" class="node">
<title>C</title>
<ellipse fill="none" stroke="#000000" cx="156.0803" cy="-122.2012" rx="27" ry="18"/>
<text text-anchor="middle" x="156.0803" y="-118.0012" font-family="Times,serif" font-size="14.00" fill="#000000">C</text>
</g>
<!-- B&#45;&#45;C -->
<g id="edge2" class="edge">
<title>B--C</title>
<path fill="none" stroke="#000000" d="M156.0803,-36.1505C156.0803,-55.1593 156.0803,-84.8474 156.0803,-103.9091"/>
<text text-anchor="middle" x="150.25" y="-74.2298" font-family="Times,serif" font-size="14.00" fill="#000000">β</text>
</g>
<!-- D -->
<g id="node4" class="node">
<title>D</title>
<ellipse fill="none" stroke="#000000" cx="246.3211" cy="-70.1006" rx="27" ry="18"/>
<text text-anchor="middle" x="246.3211" y="-65.9006" font-family="Times,serif" font-size="14.00" fill="#000000">D</text>
</g>
<!-- B&#45;&#45;D -->
<g id="edge3" class="edge">
<title>B--D</title>
<path fill="none" stroke="#000000" d="M176.5573,-29.8224C191.2218,-38.289 210.896,-49.6479 225.6128,-58.1446"/>
<text text-anchor="middle" x="197.0047" y="-48.1835" font-family="Times,serif" font-size="14.00" fill="#000000">δ</text>
</g>
<!-- C&#45;&#45;D -->
<g id="edge4" class="edge">
<title>C--D</title>
<path fill="none" stroke="#000000" d="M176.5573,-110.3787C191.2218,-101.9122 210.896,-90.5533 225.6128,-82.0566"/>
<text text-anchor="middle" x="197.0047" y="-100.4177" font-family="Times,serif" font-size="14.00" fill="#000000">σ</text>
</g>
</g>
</svg>