<?xml version="1.0" encoding="UTF-8" standalone="no"?><svg xmlns="http://www.w3.org/2000/svg" xmlns:xlink="http://www.w3.org/1999/xlink" contentStyleType="text/css" height="526px" preserveAspectRatio="none" style="width:693px;height:526px;background:#FFFFFF;" version="1.1" viewBox="0 0 693 526" width="693px" zoomAndPan="magnify"><defs/><g><!--MD5=[153cb1cccf0b19aefe0bcd195557f5bd]
class Graaf--><g id="elem_Graaf"><rect codeLine="3" fill="#F1F1F1" height="243.5625" id="Graaf" rx="2.5" ry="2.5" style="stroke:#181818;stroke-width:0.5;" width="282" x="209" y="10"/><ellipse cx="316.75" cy="26" fill="#ADD1B2" rx="11" ry="11" style="stroke:#181818;stroke-width:1.0;"/><path d="M319.0938,21.6719 C318.1563,21.2344 317.5625,21.0938 316.6875,21.0938 C314.0625,21.0938 312.0625,23.1719 312.0625,25.8906 L312.0625,27.0156 C312.0625,29.5938 314.1719,31.4844 317.0625,31.4844 C318.2813,31.4844 319.4375,31.1875 320.1875,30.6406 C320.7656,30.2344 321.0938,29.7813 321.0938,29.3906 C321.0938,28.9375 320.7031,28.5469 320.2344,28.5469 C320.0156,28.5469 319.8125,28.625 319.625,28.8125 C319.1719,29.2969 319.1719,29.2969 318.9844,29.3906 C318.5625,29.6563 317.875,29.7813 317.1094,29.7813 C315.0625,29.7813 313.7656,28.6875 313.7656,26.9844 L313.7656,25.8906 C313.7656,24.1094 315.0156,22.7969 316.75,22.7969 C317.3281,22.7969 317.9375,22.9531 318.4063,23.2031 C318.8906,23.4844 319.0625,23.7031 319.1563,24.1094 C319.2188,24.5156 319.25,24.6406 319.3906,24.7656 C319.5313,24.9063 319.7656,25.0156 319.9844,25.0156 C320.25,25.0156 320.5156,24.875 320.6875,24.6563 C320.7969,24.5 320.8281,24.3125 320.8281,23.8906 L320.8281,22.4688 C320.8281,22.0313 320.8125,21.9063 320.7188,21.75 C320.5625,21.4844 320.2813,21.3438 319.9844,21.3438 C319.6875,21.3438 319.4844,21.4375 319.2656,21.75 L319.0938,21.6719 Z " fill="#000000"/><text fill="#000000" font-family="sans-serif" font-size="14" lengthAdjust="spacing" textLength="39" x="337.25" y="30.8467">Graaf</text><rect fill="#FFFFFF" height="15.9688" style="stroke:#181818;stroke-width:1.0;stroke-dasharray:2.0,2.0;" width="17" x="477" y="7"/><text fill="#000000" font-family="sans-serif" font-size="12" font-style="italic" lengthAdjust="spacing" textLength="15" x="478" y="19.1387">RT</text><line style="stroke:#181818;stroke-width:0.5;" x1="210" x2="490" y1="42" y2="42"/><text fill="#000000" font-family="sans-serif" font-size="14" lengthAdjust="spacing" textLength="257" x="215" y="58.9951">vector&lt;map&lt;int,int&gt;&gt; burenlijsten</text><line style="stroke:#181818;stroke-width:0.5;" x1="210" x2="490" y1="66.2969" y2="66.2969"/><ellipse cx="220" cy="79.9453" fill="#84BE84" rx="3" ry="3" style="stroke:#038048;stroke-width:1.0;"/><text fill="#000000" font-family="sans-serif" font-size="14" lengthAdjust="spacing" textLength="120" x="229" y="83.292">isGericht() : bool</text><text fill="#000000" font-family="sans-serif" font-size="14" lengthAdjust="spacing" textLength="4" x="229" y="99.5889"> </text><ellipse cx="220" cy="112.5391" fill="#84BE84" rx="3" ry="3" style="stroke:#038048;stroke-width:1.0;"/><text fill="#000000" font-family="sans-serif" font-size="14" lengthAdjust="spacing" textLength="152" x="229" y="115.8857">voegKnoopToe() : int</text><ellipse cx="220" cy="128.8359" fill="#84BE84" rx="3" ry="3" style="stroke:#038048;stroke-width:1.0;"/><text fill="#000000" font-family="sans-serif" font-size="14" lengthAdjust="spacing" textLength="248" x="229" y="132.1826">voegVerbindingToe(van, naar) : int</text><text fill="#000000" font-family="sans-serif" font-size="14" lengthAdjust="spacing" textLength="4" x="229" y="148.4795"> </text><ellipse cx="220" cy="161.4297" fill="#84BE84" rx="3" ry="3" style="stroke:#038048;stroke-width:1.0;"/><text fill="#000000" font-family="sans-serif" font-size="14" lengthAdjust="spacing" textLength="184" x="229" y="164.7764">aantalVerbindingen() : int</text><ellipse cx="220" cy="177.7266" fill="#84BE84" rx="3" ry="3" style="stroke:#038048;stroke-width:1.0;"/><text fill="#000000" font-family="sans-serif" font-size="14" lengthAdjust="spacing" textLength="143" x="229" y="181.0732">aantalKnopen() : int</text><text fill="#000000" font-family="sans-serif" font-size="14" lengthAdjust="spacing" textLength="4" x="229" y="197.3701"> </text><ellipse cx="220" cy="210.3203" fill="#84BE84" rx="3" ry="3" style="stroke:#038048;stroke-width:1.0;"/><text fill="#000000" font-family="sans-serif" font-size="14" lengthAdjust="spacing" textLength="256" x="229" y="213.667">operator[](knoopnr) : map&lt;int,int&gt;</text><ellipse cx="220" cy="226.6172" fill="#84BE84" rx="3" ry="3" style="stroke:#038048;stroke-width:1.0;"/><text fill="#000000" font-family="sans-serif" font-size="14" lengthAdjust="spacing" textLength="219" x="229" y="229.9639">verwijderVerbinding(van, naar)</text><ellipse cx="220" cy="242.9141" fill="#84BE84" rx="3" ry="3" style="stroke:#038048;stroke-width:1.0;"/><text fill="#000000" font-family="sans-serif" font-size="14" lengthAdjust="spacing" textLength="32" x="229" y="246.2607">wis()</text></g><!--MD5=[20f93073e62f1d0e45962e90bd9dec10]
class GraafMetKnoopdata--><g id="elem_GraafMetKnoopdata"><rect codeLine="23" fill="#F1F1F1" height="96.8906" id="GraafMetKnoopdata" rx="2.5" ry="2.5" style="stroke:#181818;stroke-width:0.5;" width="308" x="374" y="314"/><ellipse cx="407.9" cy="330" fill="#ADD1B2" rx="11" ry="11" style="stroke:#181818;stroke-width:1.0;"/><path d="M410.2438,325.6719 C409.3063,325.2344 408.7125,325.0938 407.8375,325.0938 C405.2125,325.0938 403.2125,327.1719 403.2125,329.8906 L403.2125,331.0156 C403.2125,333.5938 405.3219,335.4844 408.2125,335.4844 C409.4313,335.4844 410.5875,335.1875 411.3375,334.6406 C411.9156,334.2344 412.2438,333.7813 412.2438,333.3906 C412.2438,332.9375 411.8531,332.5469 411.3844,332.5469 C411.1656,332.5469 410.9625,332.625 410.775,332.8125 C410.3219,333.2969 410.3219,333.2969 410.1344,333.3906 C409.7125,333.6563 409.025,333.7813 408.2594,333.7813 C406.2125,333.7813 404.9156,332.6875 404.9156,330.9844 L404.9156,329.8906 C404.9156,328.1094 406.1656,326.7969 407.9,326.7969 C408.4781,326.7969 409.0875,326.9531 409.5563,327.2031 C410.0406,327.4844 410.2125,327.7031 410.3063,328.1094 C410.3688,328.5156 410.4,328.6406 410.5406,328.7656 C410.6813,328.9063 410.9156,329.0156 411.1344,329.0156 C411.4,329.0156 411.6656,328.875 411.8375,328.6563 C411.9469,328.5 411.9781,328.3125 411.9781,327.8906 L411.9781,326.4688 C411.9781,326.0313 411.9625,325.9063 411.8688,325.75 C411.7125,325.4844 411.4313,325.3438 411.1344,325.3438 C410.8375,325.3438 410.6344,325.4375 410.4156,325.75 L410.2438,325.6719 Z " fill="#000000"/><text fill="#000000" font-family="sans-serif" font-size="14" lengthAdjust="spacing" textLength="146" x="426.1" y="334.8467">GraafMetKnoopdata</text><rect fill="#FFFFFF" height="15.9688" style="stroke:#181818;stroke-width:1.0;stroke-dasharray:2.0,2.0;" width="86" x="599" y="311"/><text fill="#000000" font-family="sans-serif" font-size="12" font-style="italic" lengthAdjust="spacing" textLength="84" x="600" y="323.1387">RT,Knoopdata</text><line style="stroke:#181818;stroke-width:0.5;" x1="375" x2="681" y1="346" y2="346"/><text fill="#000000" font-family="sans-serif" font-size="14" lengthAdjust="spacing" textLength="277" x="380" y="362.9951">vector&lt;Knoopdata&gt; knoopdatavector</text><line style="stroke:#181818;stroke-width:0.5;" x1="375" x2="681" y1="370.2969" y2="370.2969"/><ellipse cx="385" cy="383.9453" fill="#84BE84" rx="3" ry="3" style="stroke:#038048;stroke-width:1.0;"/><text fill="#000000" font-family="sans-serif" font-size="14" lengthAdjust="spacing" textLength="231" x="394" y="387.292">voegKnoopToe(Knoopdata) : int</text><ellipse cx="385" cy="400.2422" fill="#84BE84" rx="3" ry="3" style="stroke:#038048;stroke-width:1.0;"/><text fill="#000000" font-family="sans-serif" font-size="14" lengthAdjust="spacing" textLength="282" x="394" y="403.5889">geefKnoopdata(knoopnr) : *Knoopdata</text></g><!--MD5=[481fc7bdfe0218bb8211f4e85487810c]
class GraafMetTakdata--><g id="elem_GraafMetTakdata"><rect codeLine="31" fill="#F1F1F1" height="96.8906" id="GraafMetTakdata" rx="2.5" ry="2.5" style="stroke:#181818;stroke-width:0.5;" width="332" x="7" y="314"/><ellipse cx="68.75" cy="330" fill="#ADD1B2" rx="11" ry="11" style="stroke:#181818;stroke-width:1.0;"/><path d="M71.0938,325.6719 C70.1563,325.2344 69.5625,325.0938 68.6875,325.0938 C66.0625,325.0938 64.0625,327.1719 64.0625,329.8906 L64.0625,331.0156 C64.0625,333.5938 66.1719,335.4844 69.0625,335.4844 C70.2813,335.4844 71.4375,335.1875 72.1875,334.6406 C72.7656,334.2344 73.0938,333.7813 73.0938,333.3906 C73.0938,332.9375 72.7031,332.5469 72.2344,332.5469 C72.0156,332.5469 71.8125,332.625 71.625,332.8125 C71.1719,333.2969 71.1719,333.2969 70.9844,333.3906 C70.5625,333.6563 69.875,333.7813 69.1094,333.7813 C67.0625,333.7813 65.7656,332.6875 65.7656,330.9844 L65.7656,329.8906 C65.7656,328.1094 67.0156,326.7969 68.75,326.7969 C69.3281,326.7969 69.9375,326.9531 70.4063,327.2031 C70.8906,327.4844 71.0625,327.7031 71.1563,328.1094 C71.2188,328.5156 71.25,328.6406 71.3906,328.7656 C71.5313,328.9063 71.7656,329.0156 71.9844,329.0156 C72.25,329.0156 72.5156,328.875 72.6875,328.6563 C72.7969,328.5 72.8281,328.3125 72.8281,327.8906 L72.8281,326.4688 C72.8281,326.0313 72.8125,325.9063 72.7188,325.75 C72.5625,325.4844 72.2813,325.3438 71.9844,325.3438 C71.6875,325.3438 71.4844,325.4375 71.2656,325.75 L71.0938,325.6719 Z " fill="#000000"/><text fill="#000000" font-family="sans-serif" font-size="14" lengthAdjust="spacing" textLength="125" x="89.25" y="334.8467">GraafMetTakdata</text><rect fill="#FFFFFF" height="15.9688" style="stroke:#181818;stroke-width:1.0;stroke-dasharray:2.0,2.0;" width="73" x="269" y="311"/><text fill="#000000" font-family="sans-serif" font-size="12" font-style="italic" lengthAdjust="spacing" textLength="71" x="270" y="323.1387">RT, Takdata</text><line style="stroke:#181818;stroke-width:0.5;" x1="8" x2="338" y1="346" y2="346"/><text fill="#000000" font-family="sans-serif" font-size="14" lengthAdjust="spacing" textLength="234" x="13" y="362.9951">vector&lt;Takdata&gt; takdatavector</text><line style="stroke:#181818;stroke-width:0.5;" x1="8" x2="338" y1="370.2969" y2="370.2969"/><ellipse cx="18" cy="383.9453" fill="#84BE84" rx="3" ry="3" style="stroke:#038048;stroke-width:1.0;"/><text fill="#000000" font-family="sans-serif" font-size="14" lengthAdjust="spacing" textLength="306" x="27" y="387.292">voegVerbindingToe(van,naar,Takdata) : int</text><ellipse cx="18" cy="400.2422" fill="#84BE84" rx="3" ry="3" style="stroke:#038048;stroke-width:1.0;"/><text fill="#000000" font-family="sans-serif" font-size="14" lengthAdjust="spacing" textLength="239" x="27" y="403.5889">geefTakdata(van,naar) : *Takdata</text></g><!--MD5=[9b73109d991f76467372afc92cf5695b]
class GraafMetKnoopEnTakdata--><g id="elem_GraafMetKnoopEnTakdata"><rect codeLine="38" fill="#F1F1F1" height="48" id="GraafMetKnoopEnTakdata" rx="2.5" ry="2.5" style="stroke:#181818;stroke-width:0.5;" width="370" x="165" y="471"/><ellipse cx="180" cy="487" fill="#ADD1B2" rx="11" ry="11" style="stroke:#181818;stroke-width:1.0;"/><path d="M182.3438,482.6719 C181.4063,482.2344 180.8125,482.0938 179.9375,482.0938 C177.3125,482.0938 175.3125,484.1719 175.3125,486.8906 L175.3125,488.0156 C175.3125,490.5938 177.4219,492.4844 180.3125,492.4844 C181.5313,492.4844 182.6875,492.1875 183.4375,491.6406 C184.0156,491.2344 184.3438,490.7813 184.3438,490.3906 C184.3438,489.9375 183.9531,489.5469 183.4844,489.5469 C183.2656,489.5469 183.0625,489.625 182.875,489.8125 C182.4219,490.2969 182.4219,490.2969 182.2344,490.3906 C181.8125,490.6563 181.125,490.7813 180.3594,490.7813 C178.3125,490.7813 177.0156,489.6875 177.0156,487.9844 L177.0156,486.8906 C177.0156,485.1094 178.2656,483.7969 180,483.7969 C180.5781,483.7969 181.1875,483.9531 181.6563,484.2031 C182.1406,484.4844 182.3125,484.7031 182.4063,485.1094 C182.4688,485.5156 182.5,485.6406 182.6406,485.7656 C182.7813,485.9063 183.0156,486.0156 183.2344,486.0156 C183.5,486.0156 183.7656,485.875 183.9375,485.6563 C184.0469,485.5 184.0781,485.3125 184.0781,484.8906 L184.0781,483.4688 C184.0781,483.0313 184.0625,482.9063 183.9688,482.75 C183.8125,482.4844 183.5313,482.3438 183.2344,482.3438 C182.9375,482.3438 182.7344,482.4375 182.5156,482.75 L182.3438,482.6719 Z " fill="#000000"/><text fill="#000000" font-family="sans-serif" font-size="14" lengthAdjust="spacing" textLength="190" x="194" y="491.8467">GraafMetKnoopEnTakdata</text><rect fill="#FFFFFF" height="15.9688" style="stroke:#181818;stroke-width:1.0;stroke-dasharray:2.0,2.0;" width="146" x="392" y="468"/><text fill="#000000" font-family="sans-serif" font-size="12" font-style="italic" lengthAdjust="spacing" textLength="144" x="393" y="480.1387">RT, Knoopdata, Takdata</text><line style="stroke:#181818;stroke-width:0.5;" x1="166" x2="534" y1="503" y2="503"/><line style="stroke:#181818;stroke-width:0.5;" x1="166" x2="534" y1="511" y2="511"/></g><!--MD5=[179cd38f4896352e05ff4841721b3d66]
reverse link Graaf to GraafMetKnoopdata--><g id="link_Graaf_GraafMetKnoopdata"><path codeLine="41" d="M447.558,258.236 C462.966,278.015 478.029,297.351 490.876,313.843 " fill="none" id="Graaf-backto-GraafMetKnoopdata" style="stroke:#181818;stroke-width:1.0;"/><polygon fill="#181818" points="444.473,254.275,446.8487,263.833,447.5459,258.2193,453.1596,258.9164,444.473,254.275" style="stroke:#181818;stroke-width:1.0;"/></g><!--MD5=[81e06a01da8c4db29e041cdf62dfce01]
reverse link Graaf to GraafMetTakdata--><g id="link_Graaf_GraafMetTakdata"><path codeLine="42" d="M252.99,258.236 C237.669,278.015 222.691,297.351 209.916,313.843 " fill="none" id="Graaf-backto-GraafMetTakdata" style="stroke:#181818;stroke-width:1.0;"/><polygon fill="#181818" points="256.058,254.275,247.3836,258.9393,252.9955,258.2274,253.7074,263.8392,256.058,254.275" style="stroke:#181818;stroke-width:1.0;"/></g><!--MD5=[1ae0663ed811eda82a31cefdeda043e0]
reverse link GraafMetKnoopdata to GraafMetKnoopEnTakdata--><g id="link_GraafMetKnoopdata_GraafMetKnoopEnTakdata"><path codeLine="44" d="M458.721,414.291 C432.03,433.86 402.847,455.2556 381.442,470.9485 " fill="none" id="GraafMetKnoopdata-backto-GraafMetKnoopEnTakdata" style="stroke:#181818;stroke-width:1.0;"/><polygon fill="#181818" points="462.982,411.167,453.3588,413.2632,458.9498,414.1236,458.0894,419.7147,462.982,411.167" style="stroke:#181818;stroke-width:1.0;"/></g><!--MD5=[b4ac06ebf1f10578919cf0fe1514809e]
reverse link GraafMetTakdata to GraafMetKnoopEnTakdata--><g id="link_GraafMetTakdata_GraafMetKnoopEnTakdata"><path codeLine="45" d="M241.889,414.291 C268.431,433.86 297.45,455.2556 318.735,470.9485 " fill="none" id="GraafMetTakdata-backto-GraafMetKnoopEnTakdata" style="stroke:#181818;stroke-width:1.0;"/><polygon fill="#181818" points="237.652,411.167,242.5221,419.7275,241.6764,414.1342,247.2697,413.2885,237.652,411.167" style="stroke:#181818;stroke-width:1.0;"/></g><!--MD5=[a18ba0d8a070ddb7f231a8886efa3229]
@startuml
top to bottom direction

class Graaf<RT> {
    +isGericht() : bool
    
    +voegKnoopToe() : int 
    +voegVerbindingToe(van, naar) : int    
    
    +aantalVerbindingen() : int
    +aantalKnopen() : int
    
    +operator[](knoopnr) : map<int,int>


    +verwijderVerbinding(van, naar)
    +wis()

    
    vector<map<int,int>> burenlijsten 
    
}

class GraafMetKnoopdata<RT,Knoopdata> {
    +voegKnoopToe(Knoopdata) : int
    +geefKnoopdata(knoopnr) : *Knoopdata
    
    vector<Knoopdata> knoopdatavector
}


class GraafMetTakdata<RT, Takdata> {
    +voegVerbindingToe(van,naar,Takdata) : int
    +geefTakdata(van,naar) : *Takdata
    
    vector<Takdata> takdatavector
}

class GraafMetKnoopEnTakdata<RT, Knoopdata, Takdata>{
}

GraafMetKnoopdata -u-> Graaf
GraafMetTakdata -u-> Graaf

GraafMetKnoopEnTakdata -u-> GraafMetKnoopdata
GraafMetKnoopEnTakdata -u-> GraafMetTakdata
@enduml

PlantUML version 1.2022.8beta9(Unknown compile time)
(GPL source distribution)
Java Runtime: Java(TM) SE Runtime Environment
JVM: Java HotSpot(TM) 64-Bit Server VM
Default Encoding: UTF-8
Language: en
Country: US
--></g></svg>