<svg version="1.1" xmlns="http://www.w3.org/2000/svg" viewBox="0 0 572.608006137186 248.66529887897394" width="572.608006137186" height="248.66529887897394">
  <!-- svg-source:excalidraw -->
  
  <defs>
    <style class="style-fonts">
      @font-face {
        font-family: "Virgil";
        src: url("https://excalidraw.com/Virgil.woff2");
      }
      @font-face {
        font-family: "Cascadia";
        src: url("https://excalidraw.com/Cascadia.woff2");
      }
    </style>
  </defs>
  <rect x="0" y="0" width="572.608006137186" height="248.66529887897394" fill="#ffffff"></rect><g stroke-linecap="round" transform="translate(262.3329950287938 69.98753682804721) rotate(0 76.5 68)"><path d="M61.09 2.13 C71.36 -0.89, 84.86 -0.3, 95.5 1.88 C106.13 4.06, 116.6 9.1, 124.9 15.2 C133.19 21.29, 140.51 29.41, 145.26 38.46 C150.01 47.5, 153.29 59.49, 153.39 69.47 C153.49 79.45, 150.86 89.5, 145.87 98.31 C140.89 107.13, 132.3 116.19, 123.48 122.35 C114.67 128.52, 103.83 133.36, 92.98 135.29 C82.13 137.21, 69.23 136.37, 58.4 133.91 C47.56 131.46, 36.54 126.72, 27.94 120.53 C19.35 114.34, 11.46 105.71, 6.81 96.78 C2.17 87.86, -0.13 76.94, 0.08 66.99 C0.29 57.05, 3.05 46.04, 8.05 37.12 C13.05 28.19, 20.5 19.53, 30.07 13.45 C39.65 7.36, 58.96 2.54, 65.5 0.6 C72.04 -1.33, 69.24 0.82, 69.3 1.82 M42.97 6.08 C52.01 1.24, 65.3 -1.03, 76.29 -0.74 C87.27 -0.46, 98.98 3.34, 108.88 7.79 C118.77 12.24, 128.52 18.32, 135.67 25.96 C142.83 33.61, 149.34 44.28, 151.8 53.65 C154.26 63.03, 153.21 72.7, 150.44 82.22 C147.68 91.74, 142.29 102.88, 135.21 110.78 C128.14 118.67, 117.67 125.33, 107.97 129.58 C98.27 133.82, 87.7 136.56, 77.02 136.26 C66.35 135.96, 53.94 132.18, 43.94 127.77 C33.94 123.36, 24.2 117.48, 17.01 109.81 C9.81 102.14, 3.47 91.54, 0.78 81.76 C-1.92 71.97, -1.88 60.3, 0.82 51.1 C3.52 41.9, 9.91 34.23, 16.97 26.56 C24.03 18.89, 38.62 8.05, 43.15 5.09 C47.69 2.13, 43.48 7.62, 44.2 8.81" stroke="#000000" stroke-width="1" fill="none"></path></g><g stroke-linecap="round"><g transform="translate(10.332995028793789 35.98753682804721) rotate(0 128.88452656716112 35.37332479713018)"><path d="M-0.33 1.2 C42.8 12.74, 215.29 58.7, 258.1 69.97 M1.69 0.78 C44.82 11.94, 215.42 56.81, 257.73 68.35" stroke="#000000" stroke-width="1" fill="none"></path></g><g transform="translate(10.332995028793789 35.98753682804721) rotate(0 128.88452656716112 35.37332479713018)"><path d="M229.84 72.83 C236.69 69.68, 241.99 69.96, 259.38 68.44 M228.06 70.58 C235.82 71.46, 242.63 70.11, 258.68 68.88" stroke="#000000" stroke-width="1" fill="none"></path></g><g transform="translate(10.332995028793789 35.98753682804721) rotate(0 128.88452656716112 35.37332479713018)"><path d="M235.14 53 C240.82 54.65, 244.84 59.74, 259.38 68.44 M233.35 50.75 C239.88 56.69, 245.32 60.43, 258.68 68.88" stroke="#000000" stroke-width="1" fill="none"></path></g></g><g transform="translate(105.33299502879379 16.48753682804721) rotate(15.255118703057747 27 17.5)"><text x="0" y="25" font-family="Virgil, Segoe UI Emoji" font-size="28px" fill="#000000" text-anchor="start" style="white-space: pre;" direction="ltr">aab</text></g><g stroke-linecap="round"><g transform="translate(44.33299502879379 238.9875368280472) rotate(0 109.01956016818531 -38.77373209446665)"><path d="M-0.1 -0.32 C36.7 -13.2, 182.95 -64.56, 219.65 -77.23 M-1.61 -1.54 C35.1 -14.23, 181.69 -63.01, 218.52 -75.81" stroke="#000000" stroke-width="1" fill="none"></path></g><g transform="translate(44.33299502879379 238.9875368280472) rotate(0 109.01956016818531 -38.77373209446665)"><path d="M194.58 -57.61 C199.48 -60.64, 205.71 -64.16, 217.16 -74.4 M194.15 -57.16 C203.57 -64.09, 212.74 -71.85, 218.97 -76.28" stroke="#000000" stroke-width="1" fill="none"></path></g><g transform="translate(44.33299502879379 238.9875368280472) rotate(0 109.01956016818531 -38.77373209446665)"><path d="M187.99 -77.05 C194.23 -76.13, 201.79 -75.71, 217.16 -74.4 M187.55 -76.59 C199.26 -76.45, 210.84 -77.11, 218.97 -76.28" stroke="#000000" stroke-width="1" fill="none"></path></g></g><g transform="translate(106.33299502879379 157.4875368280472) rotate(337.7509763427876 24.5 17.5)"><text x="0" y="25" font-family="Virgil, Segoe UI Emoji" font-size="28px" fill="#000000" text-anchor="start" style="white-space: pre;" direction="ltr">bab</text></g><g stroke-linecap="round"><g transform="translate(402.3329950287938 91.98753682804721) rotate(0 76.90382882038591 -29.148875907259054)"><path d="M0.37 -1.05 C26.33 -10.74, 128.78 -48.18, 154.71 -57.81 M-0.9 1.02 C24.98 -9.01, 127.51 -49.58, 153.61 -59.31" stroke="#000000" stroke-width="1" fill="none"></path></g><g transform="translate(402.3329950287938 91.98753682804721) rotate(0 76.90382882038591 -29.148875907259054)"><path d="M129.25 -40.08 C137.65 -42.19, 140.7 -49.88, 151.96 -59.01 M130.95 -39.15 C135.28 -44.34, 140.21 -47.93, 152.76 -60.31" stroke="#000000" stroke-width="1" fill="none"></path></g><g transform="translate(402.3329950287938 91.98753682804721) rotate(0 76.90382882038591 -29.148875907259054)"><path d="M121.87 -59.22 C131.87 -57.36, 136.46 -61.03, 151.96 -59.01 M123.56 -58.3 C129.41 -59.47, 135.87 -59.09, 152.76 -60.31" stroke="#000000" stroke-width="1" fill="none"></path></g></g><g transform="translate(422.3329950287938 20.48753682804721) rotate(339.44395478041656 27 17.5)"><text x="0" y="25" font-family="Virgil, Segoe UI Emoji" font-size="28px" fill="#000000" text-anchor="start" style="white-space: pre;" direction="ltr">aba</text></g><g stroke-linecap="round"><g transform="translate(411.429166208408 168.1364127353063) rotate(0 75.23774241326845 21.73201708468602)"><path d="M-0.7 1.15 C24.18 7.98, 124.06 34.38, 148.99 41.15 M1.13 0.7 C26.41 7.74, 126.17 36.24, 151.18 42.76" stroke="#000000" stroke-width="1" fill="none"></path></g><g transform="translate(411.429166208408 168.1364127353063) rotate(0 75.23774241326845 21.73201708468602)"><path d="M123.19 43.51 C129.7 42.84, 138.89 42.12, 151.44 44.58 M121.35 45.05 C132.39 44.55, 144.51 44.08, 151.13 42.73" stroke="#000000" stroke-width="1" fill="none"></path></g><g transform="translate(411.429166208408 168.1364127353063) rotate(0 75.23774241326845 21.73201708468602)"><path d="M128.63 23.72 C133.67 28.43, 141.38 33.12, 151.44 44.58 M126.79 25.26 C135.89 32.18, 145.96 39.18, 151.13 42.73" stroke="#000000" stroke-width="1" fill="none"></path></g></g><g transform="translate(447.3329950287938 142.4875368280472) rotate(16.534837857345135 24.5 17.5)"><text x="0" y="25" font-family="Virgil, Segoe UI Emoji" font-size="28px" fill="#000000" text-anchor="start" style="white-space: pre;" direction="ltr">abb</text></g><g stroke-linecap="round"><g transform="translate(118.33299502879379 44.98753682804721) rotate(0 18.053328795731034 4.84687837207224)"><path d="M-0.8 0.13 C5.2 2.07, 30.41 9.02, 36.91 10.53 M0.98 -0.84 C6.74 0.84, 29.74 6.86, 35.91 8.69" stroke="#c92a2a" stroke-width="1" fill="none"></path></g></g><g stroke-linecap="round"><g transform="translate(438.2796662330627 168.14065845597497) rotate(0 18.668839737521523 5.117397351241664)"><path d="M0.58 0.37 C6.38 2.11, 29.62 9.3, 35.82 10.71 M-0.58 -0.48 C5.49 0.9, 31.58 7.3, 37.91 8.96" stroke="#c92a2a" stroke-width="1" fill="none"></path></g></g><g stroke-linecap="round"><g transform="translate(431.2796662330627 62.14065845597497) rotate(0 11.954915463724205 -6.599962477386015)"><path d="M-0.07 0.71 C4.04 -1.45, 21.11 -11.26, 25.48 -13.91 M-1.57 0.04 C2.27 -1.83, 19.76 -9.91, 24.26 -12.33" stroke="#c92a2a" stroke-width="1" fill="none"></path></g></g><g stroke-linecap="round"><g transform="translate(128.37807956506947 193.58749930543325) rotate(0 14.417752589122358 -5.755822868645225)"><path d="M-0.2 0.66 C4.74 -1.52, 25.21 -10.36, 30.6 -12.17 M-1.76 -0.04 C2.91 -2.19, 23.81 -9.23, 29.44 -11.25" stroke="#c92a2a" stroke-width="1" fill="none"></path></g></g></svg>